ply
format ascii 1.0
element vertex 131
property float x
property float y
property float z
end_header
-12.000000 -20.000000 -4.000000
4.000000 20.000000 12.000000
20.000000 12.000000 4.000000
28.000000 4.000000 4.000000
4.000000 4.000000 12.000000
20.000000 4.000000 4.000000
4.000000 -12.000000 12.000000
4.000000 -4.000000 12.000000
20.000000 -20.000000 12.000000
-20.000000 -12.000000 12.000000
-20.000000 -12.000000 4.000000
12.000000 -4.000000 12.000000
12.000000 20.000000 12.000000
-20.000000 4.000000 20.000000
12.000000 -12.000000 4.000000
-20.000000 12.000000 4.000000
12.000000 4.000000 12.000000
4.000000 20.000000 20.000000
44.000000 -4.000000 4.000000
20.000000 20.000000 4.000000
4.000000 -20.000000 4.000000
12.000000 12.000000 20.000000
20.000000 -20.000000 -4.000000
4.000000 -4.000000 4.000000
12.000000 12.000000 4.000000
-12.000000 4.000000 12.000000
-4.000000 4.000000 20.000000
-4.000000 -20.000000 4.000000
20.000000 -12.000000 -4.000000
-20.000000 -4.000000 4.000000
12.000000 -4.000000 4.000000
20.000000 20.000000 12.000000
4.000000 4.000000 -4.000000
4.000000 20.000000 4.000000
20.000000 4.000000 -4.000000
4.000000 12.000000 4.000000
12.000000 4.000000 -4.000000
-12.000000 20.000000 4.000000
-12.000000 -20.000000 12.000000
28.000000 20.000000 4.000000
-4.000000 -20.000000 12.000000
-4.000000 12.000000 -4.000000
-12.000000 -4.000000 4.000000
28.000000 -20.000000 4.000000
-12.000000 -20.000000 4.000000
-4.000000 -12.000000 -4.000000
-4.000000 20.000000 12.000000
-12.000000 -12.000000 4.000000
-12.000000 12.000000 12.000000
-4.000000 -20.000000 20.000000
-20.000000 -4.000000 20.000000
-4.000000 12.000000 12.000000
4.000000 12.000000 12.000000
12.000000 -12.000000 12.000000
-12.000000 -12.000000 20.000000
20.000000 -20.000000 4.000000
12.000000 -20.000000 4.000000
20.000000 -4.000000 12.000000
20.000000 4.000000 12.000000
4.000000 -4.000000 -4.000000
4.000000 12.000000 20.000000
-4.000000 12.000000 20.000000
-12.000000 12.000000 20.000000
4.000000 -20.000000 12.000000
4.000000 12.000000 -4.000000
-12.000000 12.000000 -4.000000
-20.000000 4.000000 12.000000
12.000000 -12.000000 20.000000
-12.000000 4.000000 -4.000000
-4.000000 4.000000 12.000000
12.000000 -4.000000 20.000000
-20.000000 -20.000000 12.000000
12.000000 -20.000000 20.000000
4.000000 -4.000000 20.000000
4.000000 -12.000000 4.000000
12.000000 12.000000 -4.000000
-4.000000 4.000000 -4.000000
12.000000 4.000000 20.000000
-4.000000 -20.000000 -4.000000
12.000000 -12.000000 -4.000000
20.000000 12.000000 -4.000000
4.000000 4.000000 20.000000
-12.000000 20.000000 20.000000
-12.000000 -4.000000 -4.000000
28.000000 -12.000000 4.000000
-4.000000 12.000000 4.000000
-4.000000 -4.000000 12.000000
-4.000000 -4.000000 -4.000000
20.000000 -4.000000 -4.000000
20.000000 -12.000000 12.000000
-12.000000 20.000000 12.000000
-4.000000 -12.000000 20.000000
12.000000 -20.000000 -4.000000
20.000000 12.000000 12.000000
-20.000000 4.000000 4.000000
4.000000 -20.000000 -4.000000
20.000000 20.000000 -4.000000
-4.000000 20.000000 4.000000
4.000000 -12.000000 20.000000
-4.000000 -12.000000 12.000000
12.000000 20.000000 -4.000000
-4.000000 -12.000000 4.000000
36.000000 4.000000 4.000000
-20.000000 12.000000 12.000000
4.000000 4.000000 4.000000
44.000000 4.000000 4.000000
28.000000 -4.000000 4.000000
-12.000000 4.000000 4.000000
-12.000000 -12.000000 12.000000
12.000000 4.000000 4.000000
-20.000000 -20.000000 4.000000
20.000000 12.000000 20.000000
4.000000 -12.000000 -4.000000
-12.000000 -4.000000 20.000000
12.000000 20.000000 20.000000
-4.000000 20.000000 20.000000
12.000000 12.000000 12.000000
12.000000 20.000000 4.000000
36.000000 -4.000000 4.000000
20.000000 -4.000000 4.000000
12.000000 -20.000000 12.000000
-4.000000 -4.000000 4.000000
28.000000 12.000000 4.000000
-4.000000 -4.000000 20.000000
20.000000 -12.000000 4.000000
-12.000000 4.000000 20.000000
12.000000 -4.000000 -4.000000
-4.000000 4.000000 4.000000
-12.000000 -4.000000 12.000000
-12.000000 12.000000 4.000000
-20.000000 -4.000000 12.000000